<svg xmlns="http://www.w3.org/2000/svg" viewBox="0 0 64 64" role="img" aria-labelledby="title description">
  <title id="title">Yasmine</title>
  <desc id="description">A jasmine flower over a seismic waveform</desc>
  <defs>
    <linearGradient id="background" x1="8" y1="4" x2="56" y2="60" gradientUnits="userSpaceOnUse">
      <stop stop-color="#247fd7"/>
      <stop offset="1" stop-color="#123b5d"/>
    </linearGradient>
  </defs>
  <rect width="64" height="64" rx="14" fill="url(#background)"/>
  <path
    d="M7 42h8l2.4-3.6 3.2 8.2 3.2-12.8 3.1 14.4 3-10.2 3.2 6.2 2.8-3.8 2.8 2.2H57"
    fill="none"
    stroke="#b8e6f1"
    stroke-linecap="round"
    stroke-linejoin="round"
    stroke-width="1.8"
    opacity=".9"
  />
  <path d="M25.6 27.4C17.8 26.4 12.2 21.7 11 15c7.4-.8 13.7 3 16.8 9.9z" fill="#57905a"/>
  <path d="M31.8 23.8c.3-8 4.5-13.9 11.1-15.7 1.6 7.3-1.6 14-8.1 17.8z" fill="#57905a"/>
  <g fill="#fff">
    <ellipse cx="31.5" cy="21.2" rx="6.5" ry="11" transform="rotate(-6 31.5 21.2)"/>
    <ellipse cx="40.2" cy="27.7" rx="6.5" ry="11" transform="rotate(66 40.2 27.7)"/>
    <ellipse cx="37" cy="38" rx="6.5" ry="11" transform="rotate(138 37 38)"/>
    <ellipse cx="25.9" cy="37.9" rx="6.5" ry="11" transform="rotate(-138 25.9 37.9)"/>
    <ellipse cx="22.5" cy="27.6" rx="6.5" ry="11" transform="rotate(-66 22.5 27.6)"/>
  </g>
  <circle cx="31.4" cy="30.7" r="4.1" fill="#d29a2a"/>
  <circle cx="31.4" cy="30.7" r="1.6" fill="#f7d778"/>
  <path d="M11.5 51.5c5.8-6 12.5-9 20.2-9 7.8 0 14.8 3 20.8 9" fill="none" stroke="#d9edf5" stroke-linecap="round" stroke-width="2"/>
</svg>
